<svg id="Capa_1" enable-background="new 0 0 512 512" height="512" viewBox="0 0 512 512" width="512" xmlns="http://www.w3.org/2000/svg"><g><g><path d="m194.49 72.054c-4.204 0-7.611-3.408-7.611-7.611v-56.832c0-4.204 3.407-7.611 7.611-7.611s7.611 3.408 7.611 7.611v56.831c0 4.204-3.407 7.612-7.611 7.612z" fill="#ddeafb"/></g><g><path d="m178.086 115.076h32.806v107.951h-32.806z" fill="#ddeafb"/></g><g><g><path d="m34.946 480.421v-225.814c0-17.441 14.138-31.579 31.579-31.579h378.95c17.441 0 31.579 14.138 31.579 31.579v225.814c0 17.441-14.138 31.579-31.579 31.579h-378.95c-17.441 0-31.579-14.138-31.579-31.579z" fill="#ffe07d"/></g><g><path d="m283.16 414.01 193.894-150.96v-8.443c0-17.441-14.138-31.579-31.579-31.579h-378.95c-17.441 0-31.579 14.138-31.579 31.579v8.443l193.894 150.96c15.972 12.435 38.348 12.435 54.32 0z" fill="#ffd064"/></g><g><path d="m223.555 371.867-164.774 139.169h-.01c-5.44-1.37-10.311-4.141-14.208-7.926l169.168-142.873c3.207-2.71 8.017-2.314 10.727.903 2.71 3.207 2.304 8.007-.903 10.727z" fill="#ffd064"/></g><g><path d="m467.437 503.11c-3.897 3.785-8.769 6.556-14.208 7.926l-164.784-139.169c-3.207-2.72-3.613-7.52-.903-10.727 2.71-3.217 7.52-3.613 10.727-.903z" fill="#ffd064"/></g><g><path d="m265.7 387.582 200.891-156.408c-5.597-5.047-12.986-8.146-21.116-8.146h-378.95c-8.13 0-15.548 3.08-21.145 8.127l200.92 156.427c5.704 4.441 13.696 4.441 19.4 0z" fill="#ffe07d"/></g></g><g><path d="m256 288.511c24.873 0 45.108-20.235 45.108-45.108v-52.284h-9.207c-3.364 0-5.268-3.856-3.223-6.527l37.954-49.572c2.359-3.081 7.283-1.413 7.283 2.468v105.916c0 42.962-34.952 77.914-77.914 77.914v-32.807z" fill="#f4fbff"/></g><g><circle cx="194.489" cy="87.1" fill="#e28086" r="32.806"/></g><g><path d="m256 343.28c-4.204 0-7.611-3.408-7.611-7.612v-61.511c0-4.204 3.407-7.612 7.611-7.612s7.612 3.408 7.612 7.612v61.511c0 4.205-3.408 7.612-7.612 7.612z" fill="#ffd064"/></g></g></svg>